<svg width="235" height="59" viewBox="0 0 235 59" fill="none" xmlns="http://www.w3.org/2000/svg">
<path d="M60.4947 46.145V8.39896H83.2287V15.041H67.1367V28.271H80.3127V34.967H67.1367V46.145H60.4947ZM104.397 18.497H111.039V46.199H104.397V44.903C102.831 45.767 101.049 46.361 99.1591 46.523C98.7811 46.577 98.4031 46.577 98.0251 46.577C90.4111 46.577 84.0931 40.421 83.8771 32.807C83.7691 28.973 85.1731 25.301 87.8731 22.547C90.5191 19.793 94.1371 18.281 97.9711 18.281C100.239 18.281 102.399 18.821 104.397 19.793V18.497ZM104.397 33.239V29.891C104.397 28.865 104.019 27.947 103.425 27.299C101.967 25.787 100.077 24.923 97.9711 24.923C95.9731 24.923 94.0291 25.733 92.6251 27.191C91.2211 28.649 90.4651 30.593 90.5191 32.645C90.6271 36.587 94.0291 39.881 98.0251 39.881C98.1871 39.881 98.4031 39.881 98.6191 39.881C101.859 39.611 104.397 36.695 104.397 33.239ZM131.737 39.935L134.113 46.199C132.763 46.685 131.305 46.955 129.847 46.955C123.313 46.955 118.021 41.663 118.021 35.129V25.625H114.457V18.929H118.021V12.287H124.663V18.929H131.035V25.625H124.663V35.129C124.663 37.991 126.985 40.313 129.847 40.313C130.495 40.313 131.143 40.205 131.737 39.935ZM154.339 18.497H160.981V46.145H154.339V45.065C152.665 45.929 150.829 46.361 148.831 46.361C142.135 46.361 136.735 40.961 136.735 34.265V18.497H143.377V34.265C143.377 37.235 145.861 39.719 148.831 39.719C151.855 39.719 154.339 37.235 154.339 34.265V18.497ZM177.95 18.281C178.598 18.281 179.192 18.335 179.786 18.389L178.814 25.031C178.544 24.977 178.274 24.923 177.95 24.923C174.98 24.923 172.496 27.407 172.496 30.431V46.145H165.854V18.497H172.496V19.577C174.17 18.767 176.006 18.281 177.95 18.281ZM189.529 46.199H182.887V8.39896H189.529V46.199ZM218.145 18.497V42.257C218.145 51.059 210.963 58.241 202.161 58.241C200.001 58.241 197.895 57.809 195.897 56.999L198.489 50.843C199.677 51.329 200.865 51.599 202.161 51.599C206.211 51.599 209.667 48.953 210.963 45.335C209.451 45.983 207.777 46.361 205.995 46.361C199.299 46.361 193.899 40.961 193.899 34.265V18.497H200.541V34.265C200.541 37.235 203.025 39.719 205.995 39.719C209.019 39.719 211.503 37.235 211.503 34.265V18.497H218.145Z" fill="black"/>
<g filter="url(#filter0_dd_112_16)">
<path d="M40.8424 2.89282H16.1063C9.36099 2.89282 3.89285 8.36096 3.89285 15.1063V39.8423C3.89285 46.5876 9.36099 52.0558 16.1063 52.0558H40.8424C47.5876 52.0558 53.0558 46.5876 53.0558 39.8423V15.1063C53.0558 8.36096 47.5876 2.89282 40.8424 2.89282Z" fill="white"/>
<path d="M40.8424 2.89282H16.1063C9.36099 2.89282 3.89285 8.36096 3.89285 15.1063V39.8423C3.89285 46.5876 9.36099 52.0558 16.1063 52.0558H40.8424C47.5876 52.0558 53.0558 46.5876 53.0558 39.8423V15.1063C53.0558 8.36096 47.5876 2.89282 40.8424 2.89282Z" fill="url(#paint0_linear_112_16)"/>
</g>
<path d="M49.6668 23.5404C49.6567 23.4099 49.5956 23.2794 49.4735 23.2192L32.311 13.442C31.8939 13.0605 6.735 28.0977 6.35858 28.1078C6.24668 28.178 6.17546 28.2985 6.16529 28.429L6.14494 35.7267C6.14494 35.8572 6.21616 35.9877 6.33824 36.048L12.7678 39.7119C12.8899 39.7822 13.0323 39.7822 13.1443 39.7119L22.5445 34.3214L33.1045 40.3242C33.2266 40.3945 33.369 40.3945 33.4809 40.3242L39.8698 36.6603C39.9817 36.59 40.053 36.4696 40.0631 36.3391L40.0733 33.3377L42.698 34.8334C42.81 34.9036 42.9626 34.9036 43.0745 34.8334L49.4634 31.1694C49.5753 31.0991 49.6465 30.9787 49.6567 30.8482C49.6465 30.8381 49.6668 23.5404 49.6668 23.5404ZM32.138 14.1948L48.5376 23.5404L42.9015 26.7727L32.3619 20.7698C32.2398 20.6996 32.0973 20.6996 31.9854 20.7698C31.8532 20.9304 28.3739 22.6269 28.5977 22.928C28.5977 23.0585 28.6689 23.189 28.791 23.2493L38.9542 29.0413L33.308 32.2736C33.074 32.2033 22.8395 26.2005 22.5852 26.2206C22.3512 26.1804 13.2053 31.6011 12.9917 31.6613L7.31489 28.429L32.138 14.1948Z" fill="black"/>
<defs>
<filter id="filter0_dd_112_16" x="0.892853" y="0.892822" width="55.1629" height="55.1629" filterUnits="userSpaceOnUse" color-interpolation-filters="sRGB">
<feFlood flood-opacity="0" result="BackgroundImageFix"/>
<feColorMatrix in="SourceAlpha" type="matrix" values="0 0 0 0 0 0 0 0 0 0 0 0 0 0 0 0 0 0 127 0" result="hardAlpha"/>
<feOffset dy="1"/>
<feGaussianBlur stdDeviation="1"/>
<feColorMatrix type="matrix" values="0 0 0 0 0.0627451 0 0 0 0 0.0941176 0 0 0 0 0.156863 0 0 0 0.06 0"/>
<feBlend mode="normal" in2="BackgroundImageFix" result="effect1_dropShadow_112_16"/>
<feColorMatrix in="SourceAlpha" type="matrix" values="0 0 0 0 0 0 0 0 0 0 0 0 0 0 0 0 0 0 127 0" result="hardAlpha"/>
<feOffset dy="1"/>
<feGaussianBlur stdDeviation="1.5"/>
<feColorMatrix type="matrix" values="0 0 0 0 0.0627451 0 0 0 0 0.0941176 0 0 0 0 0.156863 0 0 0 0.1 0"/>
<feBlend mode="normal" in2="effect1_dropShadow_112_16" result="effect2_dropShadow_112_16"/>
<feBlend mode="normal" in="SourceGraphic" in2="effect2_dropShadow_112_16" result="shape"/>
</filter>
<linearGradient id="paint0_linear_112_16" x1="28.4743" y1="2.73822" x2="28.4743" y2="52.2104" gradientUnits="userSpaceOnUse">
<stop stop-color="white"/>
<stop offset="1" stop-color="#D0D5DD"/>
</linearGradient>
</defs>
</svg>
