<svg width="265" height="72" viewBox="0 0 265 72" fill="none" xmlns="http://www.w3.org/2000/svg">
<path d="M61.805 24.58H87.545V31.4H70.66V38.825H85.51V45.755H70.66V60H61.805V24.58ZM94.4372 60.55C91.7605 60.55 89.5422 59.8533 87.7822 58.46C86.0589 57.03 85.1972 54.995 85.1972 52.355C85.1972 49.6417 86.1139 47.5333 87.9472 46.03C89.8172 44.5267 92.5305 43.775 96.0872 43.775H103.347V43.17C103.347 41.8133 102.889 40.86 101.972 40.31C101.092 39.76 99.4605 39.485 97.0772 39.485C94.1072 39.485 91.1922 39.9433 88.3322 40.86V35.14C89.6522 34.6267 91.2472 34.205 93.1172 33.875C94.9872 33.545 96.9122 33.38 98.8922 33.38C103.036 33.38 106.226 34.2233 108.462 35.91C110.699 37.5967 111.817 40.2 111.817 43.72V60H104.062L103.622 57.8C101.606 59.6333 98.5439 60.55 94.4372 60.55ZM97.2422 55.105C99.8822 55.105 101.917 54.2617 103.347 52.575V48.89H97.0772C95.7572 48.89 94.7672 49.1467 94.1072 49.66C93.4839 50.1733 93.1722 50.9617 93.1722 52.025C93.1722 54.0783 94.5289 55.105 97.2422 55.105ZM126.456 60.55C123.302 60.55 120.937 59.7433 119.361 58.13C117.821 56.5167 117.051 54.225 117.051 51.255V40.64H113.531V33.93H117.051V28.485L125.906 26.12V33.93H132.231L131.846 40.64H125.906V50.65C125.906 51.8967 126.199 52.7767 126.786 53.29C127.372 53.7667 128.326 54.005 129.646 54.005C130.709 54.005 131.791 53.8217 132.891 53.455V59.45C131.167 60.1833 129.022 60.55 126.456 60.55ZM144.421 60.55C141.304 60.55 138.884 59.6883 137.161 57.965C135.474 56.205 134.631 53.6567 134.631 50.32V33.93H143.486V49.825C143.486 51.2917 143.834 52.3733 144.531 53.07C145.227 53.73 146.309 54.06 147.776 54.06C148.802 54.06 149.792 53.8583 150.746 53.455C151.699 53.015 152.506 52.4467 153.166 51.75V33.93H162.021V60H153.771L153.496 57.8C151.039 59.6333 148.014 60.55 144.421 60.55ZM167.616 33.93H176.031L176.306 36.35C177.479 35.6533 178.909 35.03 180.596 34.48C182.282 33.8933 183.951 33.5267 185.601 33.38V40.035C184.061 40.2183 182.411 40.5483 180.651 41.025C178.891 41.465 177.497 41.9417 176.471 42.455V60H167.616V33.93ZM197.023 60.55C194.163 60.55 192.109 59.9267 190.863 58.68C189.616 57.4333 188.993 55.435 188.993 52.685V22.93H197.848V51.805C197.848 52.6483 198.013 53.235 198.343 53.565C198.673 53.8583 199.204 54.005 199.938 54.005C200.928 54.005 201.808 53.8767 202.578 53.62V59.615C201.698 59.945 200.836 60.1833 199.993 60.33C199.186 60.4767 198.196 60.55 197.023 60.55ZM210.068 69.68C208.711 69.68 207.556 69.6067 206.603 69.46C205.686 69.35 204.788 69.1117 203.908 68.745V62.585C204.934 62.9517 206.053 63.135 207.263 63.135C208.729 63.135 209.848 62.8783 210.618 62.365C211.388 61.8517 212.158 60.8983 212.928 59.505L201.213 33.93H210.508L217.383 50.485L224.148 33.93H233.388L223.433 57.855C221.819 61.7417 219.986 64.675 217.933 66.655C215.879 68.6717 213.258 69.68 210.068 69.68Z" fill="white"/>
<g filter="url(#filter0_dd_115_10)">
<path d="M40.8424 17.8928H16.1063C9.36099 17.8928 3.89285 23.361 3.89285 30.1063V54.8423C3.89285 61.5876 9.36099 67.0558 16.1063 67.0558H40.8424C47.5876 67.0558 53.0558 61.5876 53.0558 54.8423V30.1063C53.0558 23.361 47.5876 17.8928 40.8424 17.8928Z" fill="white"/>
<path d="M40.8424 17.8928H16.1063C9.36099 17.8928 3.89285 23.361 3.89285 30.1063V54.8423C3.89285 61.5876 9.36099 67.0558 16.1063 67.0558H40.8424C47.5876 67.0558 53.0558 61.5876 53.0558 54.8423V30.1063C53.0558 23.361 47.5876 17.8928 40.8424 17.8928Z" fill="url(#paint0_linear_115_10)"/>
</g>
<path d="M49.6668 38.5404C49.6567 38.4099 49.5956 38.2794 49.4735 38.2192L32.311 28.442C31.8939 28.0605 6.735 43.0977 6.35858 43.1078C6.24668 43.178 6.17546 43.2985 6.16529 43.429L6.14494 50.7267C6.14494 50.8572 6.21616 50.9877 6.33824 51.048L12.7678 54.7119C12.8899 54.7822 13.0323 54.7822 13.1443 54.7119L22.5445 49.3214L33.1045 55.3242C33.2266 55.3945 33.369 55.3945 33.4809 55.3242L39.8698 51.6603C39.9817 51.59 40.053 51.4696 40.0631 51.3391L40.0733 48.3377L42.698 49.8334C42.81 49.9036 42.9626 49.9036 43.0745 49.8334L49.4634 46.1694C49.5753 46.0991 49.6465 45.9787 49.6567 45.8482C49.6465 45.8381 49.6668 38.5404 49.6668 38.5404ZM32.138 29.1948L48.5376 38.5404L42.9015 41.7727L32.3619 35.7698C32.2398 35.6996 32.0973 35.6996 31.9854 35.7698C31.8532 35.9304 28.3739 37.6269 28.5977 37.928C28.5977 38.0585 28.6689 38.189 28.791 38.2493L38.9542 44.0413L33.308 47.2736C33.074 47.2033 22.8395 41.2005 22.5852 41.2206C22.3512 41.1804 13.2053 46.6011 12.9917 46.6613L7.31489 43.429L32.138 29.1948Z" fill="black"/>
<defs>
<filter id="filter0_dd_115_10" x="0.892853" y="15.8928" width="55.1629" height="55.1629" filterUnits="userSpaceOnUse" color-interpolation-filters="sRGB">
<feFlood flood-opacity="0" result="BackgroundImageFix"/>
<feColorMatrix in="SourceAlpha" type="matrix" values="0 0 0 0 0 0 0 0 0 0 0 0 0 0 0 0 0 0 127 0" result="hardAlpha"/>
<feOffset dy="1"/>
<feGaussianBlur stdDeviation="1"/>
<feColorMatrix type="matrix" values="0 0 0 0 0.0627451 0 0 0 0 0.0941176 0 0 0 0 0.156863 0 0 0 0.06 0"/>
<feBlend mode="normal" in2="BackgroundImageFix" result="effect1_dropShadow_115_10"/>
<feColorMatrix in="SourceAlpha" type="matrix" values="0 0 0 0 0 0 0 0 0 0 0 0 0 0 0 0 0 0 127 0" result="hardAlpha"/>
<feOffset dy="1"/>
<feGaussianBlur stdDeviation="1.5"/>
<feColorMatrix type="matrix" values="0 0 0 0 0.0627451 0 0 0 0 0.0941176 0 0 0 0 0.156863 0 0 0 0.1 0"/>
<feBlend mode="normal" in2="effect1_dropShadow_115_10" result="effect2_dropShadow_115_10"/>
<feBlend mode="normal" in="SourceGraphic" in2="effect2_dropShadow_115_10" result="shape"/>
</filter>
<linearGradient id="paint0_linear_115_10" x1="28.4743" y1="17.7382" x2="28.4743" y2="67.2104" gradientUnits="userSpaceOnUse">
<stop stop-color="white"/>
<stop offset="1" stop-color="#D0D5DD"/>
</linearGradient>
</defs>
</svg>
