<svg width="269" height="70" viewBox="0 0 269 70" fill="none" xmlns="http://www.w3.org/2000/svg">
<path d="M54.2194 24.58H79.9594V31.4H63.0744V38.825H77.9244V45.755H63.0744V60H54.2194V24.58ZM86.8516 60.55C84.175 60.55 81.9566 59.8533 80.1966 58.46C78.4733 57.03 77.6116 54.995 77.6116 52.355C77.6116 49.6417 78.5283 47.5333 80.3616 46.03C82.2316 44.5267 84.945 43.775 88.5016 43.775H95.7616V43.17C95.7616 41.8133 95.3033 40.86 94.3866 40.31C93.5066 39.76 91.875 39.485 89.4916 39.485C86.5216 39.485 83.6066 39.9433 80.7466 40.86V35.14C82.0666 34.6267 83.6616 34.205 85.5316 33.875C87.4016 33.545 89.3266 33.38 91.3066 33.38C95.45 33.38 98.64 34.2233 100.877 35.91C103.113 37.5967 104.232 40.2 104.232 43.72V60H96.4766L96.0366 57.8C94.02 59.6333 90.9583 60.55 86.8516 60.55ZM89.6566 55.105C92.2966 55.105 94.3316 54.2617 95.7616 52.575V48.89H89.4916C88.1716 48.89 87.1816 49.1467 86.5216 49.66C85.8983 50.1733 85.5866 50.9617 85.5866 52.025C85.5866 54.0783 86.9433 55.105 89.6566 55.105ZM118.87 60.55C115.717 60.55 113.352 59.7433 111.775 58.13C110.235 56.5167 109.465 54.225 109.465 51.255V40.64H105.945V33.93H109.465V28.485L118.32 26.12V33.93H124.645L124.26 40.64H118.32V50.65C118.32 51.8967 118.614 52.7767 119.2 53.29C119.787 53.7667 120.74 54.005 122.06 54.005C123.124 54.005 124.205 53.8217 125.305 53.455V59.45C123.582 60.1833 121.437 60.55 118.87 60.55ZM136.835 60.55C133.718 60.55 131.298 59.6883 129.575 57.965C127.888 56.205 127.045 53.6567 127.045 50.32V33.93H135.9V49.825C135.9 51.2917 136.248 52.3733 136.945 53.07C137.642 53.73 138.723 54.06 140.19 54.06C141.217 54.06 142.207 53.8583 143.16 53.455C144.113 53.015 144.92 52.4467 145.58 51.75V33.93H154.435V60H146.185L145.91 57.8C143.453 59.6333 140.428 60.55 136.835 60.55ZM160.03 33.93H168.445L168.72 36.35C169.893 35.6533 171.323 35.03 173.01 34.48C174.697 33.8933 176.365 33.5267 178.015 33.38V40.035C176.475 40.2183 174.825 40.5483 173.065 41.025C171.305 41.465 169.912 41.9417 168.885 42.455V60H160.03V33.93ZM189.437 60.55C186.577 60.55 184.524 59.9267 183.277 58.68C182.03 57.4333 181.407 55.435 181.407 52.685V22.93H190.262V51.805C190.262 52.6483 190.427 53.235 190.757 53.565C191.087 53.8583 191.619 54.005 192.352 54.005C193.342 54.005 194.222 53.8767 194.992 53.62V59.615C194.112 59.945 193.25 60.1833 192.407 60.33C191.6 60.4767 190.61 60.55 189.437 60.55ZM202.482 69.68C201.126 69.68 199.971 69.6067 199.017 69.46C198.101 69.35 197.202 69.1117 196.322 68.745V62.585C197.349 62.9517 198.467 63.135 199.677 63.135C201.144 63.135 202.262 62.8783 203.032 62.365C203.802 61.8517 204.572 60.8983 205.342 59.505L193.627 33.93H202.922L209.797 50.485L216.562 33.93H225.802L215.847 57.855C214.234 61.7417 212.401 64.675 210.347 66.655C208.294 68.6717 205.672 69.68 202.482 69.68Z" fill="black"/>
<g filter="url(#filter0_dd_118_3)">
<path d="M35.6732 20.5117H14.229C8.38139 20.5117 3.64095 25.2521 3.64095 31.0997V52.5439C3.64095 58.3915 8.38139 63.132 14.229 63.132H35.6732C41.5208 63.132 46.2613 58.3915 46.2613 52.5439V31.0997C46.2613 25.2521 41.5208 20.5117 35.6732 20.5117Z" fill="white"/>
<path d="M35.6732 20.5117H14.229C8.38139 20.5117 3.64095 25.2521 3.64095 31.0997V52.5439C3.64095 58.3915 8.38139 63.132 14.229 63.132H35.6732C41.5208 63.132 46.2613 58.3915 46.2613 52.5439V31.0997C46.2613 25.2521 41.5208 20.5117 35.6732 20.5117Z" fill="url(#paint0_linear_118_3)"/>
</g>
<path d="M221.434 55.116H225.76L225.83 56.852H223.688V64.65H225.844L225.774 66.386H221.434V55.116ZM227.233 68.36V57.608C227.233 56.852 227.368 56.2313 227.639 55.746C227.919 55.2513 228.311 54.8873 228.815 54.654C229.328 54.4113 229.93 54.29 230.621 54.29C231.293 54.29 231.867 54.3927 232.343 54.598C232.819 54.794 233.183 55.0927 233.435 55.494C233.696 55.886 233.827 56.3807 233.827 56.978C233.827 57.426 233.747 57.8133 233.589 58.14C233.439 58.4667 233.225 58.728 232.945 58.924C232.674 59.12 232.347 59.2553 231.965 59.33V59.372C232.45 59.4373 232.87 59.5727 233.225 59.778C233.589 59.9833 233.869 60.2727 234.065 60.646C234.27 61.01 234.373 61.4767 234.373 62.046C234.373 62.6993 234.223 63.2593 233.925 63.726C233.635 64.1833 233.243 64.5333 232.749 64.776C232.263 65.0187 231.722 65.14 231.125 65.14C230.826 65.14 230.579 65.1213 230.383 65.084C230.187 65.056 230.005 65.0093 229.837 64.944C229.678 64.8787 229.505 64.7993 229.319 64.706V68.36H227.233ZM230.733 63.474C231.199 63.474 231.563 63.334 231.825 63.054C232.086 62.7647 232.217 62.368 232.217 61.864C232.217 61.4813 232.137 61.1733 231.979 60.94C231.829 60.6973 231.638 60.5247 231.405 60.422C231.171 60.31 230.929 60.254 230.677 60.254H230.047V58.686H230.551C230.803 58.686 231.017 58.6253 231.195 58.504C231.372 58.3733 231.507 58.2007 231.601 57.986C231.694 57.762 231.741 57.51 231.741 57.23C231.741 56.7913 231.629 56.4647 231.405 56.25C231.181 56.026 230.915 55.914 230.607 55.914C230.345 55.914 230.117 55.97 229.921 56.082C229.725 56.194 229.575 56.376 229.473 56.628C229.37 56.8707 229.319 57.202 229.319 57.622V62.998C229.552 63.1473 229.781 63.264 230.005 63.348C230.229 63.432 230.471 63.474 230.733 63.474ZM235.714 55.984H242.364V57.72H237.968V59.61H241.846V61.374H237.968V63.264H242.364V65H235.714V55.984ZM245.525 57.72H242.879V55.984H250.425V57.72H247.779V65H245.525V57.72ZM252.7 55.984H255.136L258.58 65H256.228L255.416 62.956H252.406L251.608 65H249.256L252.7 55.984ZM255.108 61.29L253.904 58.154L252.714 61.29H255.108ZM259.302 64.65H261.458V56.852H259.316L259.386 55.116H263.712V66.386H259.372L259.302 64.65Z" fill="black"/>
<path d="M43.3233 38.4114C43.3145 38.2983 43.2616 38.1852 43.1558 38.1329L28.2772 29.6569C27.9156 29.3262 6.10487 42.3623 5.77855 42.371C5.68153 42.4319 5.6198 42.5363 5.61098 42.6494L5.59334 48.976C5.59334 49.0892 5.65507 49.2023 5.76091 49.2545L11.3349 52.4308C11.4407 52.4918 11.5642 52.4918 11.6612 52.4308L19.8104 47.7577L28.9651 52.9617C29.071 53.0226 29.1944 53.0226 29.2915 52.9617L34.8301 49.7853C34.9271 49.7244 34.9889 49.62 34.9977 49.5069L35.0065 46.9049L37.282 48.2015C37.379 48.2624 37.5113 48.2624 37.6083 48.2015L43.147 45.0252C43.244 44.9643 43.3057 44.8598 43.3145 44.7467C43.3057 44.738 43.3233 38.4114 43.3233 38.4114ZM28.1273 30.3096L42.3444 38.4114L37.4583 41.2136L28.3213 36.0096C28.2155 35.9487 28.092 35.9487 27.995 36.0096C27.8803 36.1488 24.864 37.6195 25.0581 37.8806C25.0581 37.9937 25.1198 38.1068 25.2256 38.159L34.0364 43.1803L29.1415 45.9824C28.9387 45.9215 20.0662 40.7175 19.8457 40.7349C19.6429 40.7001 11.7141 45.3994 11.5289 45.4516L6.60759 42.6494L28.1273 30.3096Z" fill="black"/>
<defs>
<filter id="filter0_dd_118_3" x="0.640953" y="18.5117" width="48.6203" height="48.6204" filterUnits="userSpaceOnUse" color-interpolation-filters="sRGB">
<feFlood flood-opacity="0" result="BackgroundImageFix"/>
<feColorMatrix in="SourceAlpha" type="matrix" values="0 0 0 0 0 0 0 0 0 0 0 0 0 0 0 0 0 0 127 0" result="hardAlpha"/>
<feOffset dy="1"/>
<feGaussianBlur stdDeviation="1"/>
<feColorMatrix type="matrix" values="0 0 0 0 0.0627451 0 0 0 0 0.0941176 0 0 0 0 0.156863 0 0 0 0.06 0"/>
<feBlend mode="normal" in2="BackgroundImageFix" result="effect1_dropShadow_118_3"/>
<feColorMatrix in="SourceAlpha" type="matrix" values="0 0 0 0 0 0 0 0 0 0 0 0 0 0 0 0 0 0 127 0" result="hardAlpha"/>
<feOffset dy="1"/>
<feGaussianBlur stdDeviation="1.5"/>
<feColorMatrix type="matrix" values="0 0 0 0 0.0627451 0 0 0 0 0.0941176 0 0 0 0 0.156863 0 0 0 0.1 0"/>
<feBlend mode="normal" in2="effect1_dropShadow_118_3" result="effect2_dropShadow_118_3"/>
<feBlend mode="normal" in="SourceGraphic" in2="effect2_dropShadow_118_3" result="shape"/>
</filter>
<linearGradient id="paint0_linear_118_3" x1="24.9511" y1="20.3776" x2="24.9511" y2="63.266" gradientUnits="userSpaceOnUse">
<stop stop-color="white"/>
<stop offset="1" stop-color="#D0D5DD"/>
</linearGradient>
</defs>
</svg>
